<svg xmlns="http://www.w3.org/2000/svg" viewBox="0 0 128 128"><path fill="#38BDF8" d="M64 26c-17 0-27.8 8.5-32.4 25.6 6.4-8.5 13.8-11.7 22.2-9.6 4.8 1.2 8.3 4.7 12.1 8.6C71 56.1 77.5 62.6 91.3 62.6c17 0 27.8-8.5 32.4-25.6-6.4 8.5-13.8 11.7-22.2 9.6-4.8-1.2-8.3-4.7-12.1-8.6C84.3 32.5 77.8 26 64 26zM31.6 65.4C14.6 65.4 3.8 73.9-.8 91c6.4-8.5 13.8-11.7 22.2-9.6 4.8 1.2 8.3 4.7 12.1 8.6 5.1 5.5 11.6 12 25.4 12 17 0 27.8-8.5 32.4-25.6-6.4 8.5-13.8 11.7-22.2 9.6-4.8-1.2-8.3-4.7-12.1-8.6-5.1-5.5-11.6-12-25.4-12z"/></svg>
